<svg xmlns="http://www.w3.org/2000/svg" viewBox="0 0 420 297" width="420mm" height="297mm" data-tf-scale="50" data-tf-rotated="0" data-tf-ox="170" data-tf-oy="78.5" data-tf-min-x="0" data-tf-min-y="0" data-tf-max-x="4000" data-tf-max-y="7000">
<style>
text{font-family:'Be Vietnam Pro','Segoe UI',Arial,sans-serif;fill:#000;stroke:none}
.b{font-weight:700}
</style>
<rect width="420" height="297" fill="#ffffff"/>
<g id="layer-TRUC" data-layer="TRUC">
<line data-id="1" x1="172.2" y1="76.5" x2="172.2" y2="72.5" stroke="#000" stroke-width="0.13" stroke-linecap="round" stroke-linejoin="round" stroke-dasharray="6 1.5 1 1.5"/>
<circle data-id="1" cx="172.2" cy="68.5" r="4" fill="none" stroke="#000" stroke-width="0.25" stroke-linecap="round" stroke-linejoin="round"/>
<text data-id="1" x="172.2" y="68.5" font-size="3.2" text-anchor="middle" dominant-baseline="middle">1</text>
<line data-id="2" x1="247.8" y1="76.5" x2="247.8" y2="72.5" stroke="#000" stroke-width="0.13" stroke-linecap="round" stroke-linejoin="round" stroke-dasharray="6 1.5 1 1.5"/>
<circle data-id="2" cx="247.8" cy="68.5" r="4" fill="none" stroke="#000" stroke-width="0.25" stroke-linecap="round" stroke-linejoin="round"/>
<text data-id="2" x="247.8" y="68.5" font-size="3.2" text-anchor="middle" dominant-baseline="middle">2</text>
</g>
<g id="layer-TUONG-CAT" data-layer="TUONG-CAT">
<polygon points="170,218.5 250,218.5 250,78.5 170,78.5" fill="none" stroke="#000" stroke-width="0.5" stroke-linecap="round" stroke-linejoin="round"/>
<line x1="162" y1="218.5" x2="258" y2="218.5" stroke="#000" stroke-width="0.7" stroke-linecap="round" stroke-linejoin="round"/>
</g>
<g id="layer-TUONG-THAY" data-layer="TUONG-THAY">
<line x1="162" y1="218.5" x2="160.4" y2="220.1" stroke="#000" stroke-width="0.13" stroke-linecap="round" stroke-linejoin="round"/>
<line x1="165" y1="218.5" x2="163.4" y2="220.1" stroke="#000" stroke-width="0.13" stroke-linecap="round" stroke-linejoin="round"/>
<line x1="168" y1="218.5" x2="166.4" y2="220.1" stroke="#000" stroke-width="0.13" stroke-linecap="round" stroke-linejoin="round"/>
<line x1="171" y1="218.5" x2="169.4" y2="220.1" stroke="#000" stroke-width="0.13" stroke-linecap="round" stroke-linejoin="round"/>
<line x1="174" y1="218.5" x2="172.4" y2="220.1" stroke="#000" stroke-width="0.13" stroke-linecap="round" stroke-linejoin="round"/>
<line x1="177" y1="218.5" x2="175.4" y2="220.1" stroke="#000" stroke-width="0.13" stroke-linecap="round" stroke-linejoin="round"/>
<line x1="180" y1="218.5" x2="178.4" y2="220.1" stroke="#000" stroke-width="0.13" stroke-linecap="round" stroke-linejoin="round"/>
<line x1="183" y1="218.5" x2="181.4" y2="220.1" stroke="#000" stroke-width="0.13" stroke-linecap="round" stroke-linejoin="round"/>
<line x1="186" y1="218.5" x2="184.4" y2="220.1" stroke="#000" stroke-width="0.13" stroke-linecap="round" stroke-linejoin="round"/>
<line x1="189" y1="218.5" x2="187.4" y2="220.1" stroke="#000" stroke-width="0.13" stroke-linecap="round" stroke-linejoin="round"/>
<line x1="192" y1="218.5" x2="190.4" y2="220.1" stroke="#000" stroke-width="0.13" stroke-linecap="round" stroke-linejoin="round"/>
<line x1="195" y1="218.5" x2="193.4" y2="220.1" stroke="#000" stroke-width="0.13" stroke-linecap="round" stroke-linejoin="round"/>
<line x1="198" y1="218.5" x2="196.4" y2="220.1" stroke="#000" stroke-width="0.13" stroke-linecap="round" stroke-linejoin="round"/>
<line x1="201" y1="218.5" x2="199.4" y2="220.1" stroke="#000" stroke-width="0.13" stroke-linecap="round" stroke-linejoin="round"/>
<line x1="204" y1="218.5" x2="202.4" y2="220.1" stroke="#000" stroke-width="0.13" stroke-linecap="round" stroke-linejoin="round"/>
<line x1="207" y1="218.5" x2="205.4" y2="220.1" stroke="#000" stroke-width="0.13" stroke-linecap="round" stroke-linejoin="round"/>
<line x1="210" y1="218.5" x2="208.4" y2="220.1" stroke="#000" stroke-width="0.13" stroke-linecap="round" stroke-linejoin="round"/>
<line x1="213" y1="218.5" x2="211.4" y2="220.1" stroke="#000" stroke-width="0.13" stroke-linecap="round" stroke-linejoin="round"/>
<line x1="216" y1="218.5" x2="214.4" y2="220.1" stroke="#000" stroke-width="0.13" stroke-linecap="round" stroke-linejoin="round"/>
<line x1="219" y1="218.5" x2="217.4" y2="220.1" stroke="#000" stroke-width="0.13" stroke-linecap="round" stroke-linejoin="round"/>
<line x1="222" y1="218.5" x2="220.4" y2="220.1" stroke="#000" stroke-width="0.13" stroke-linecap="round" stroke-linejoin="round"/>
<line x1="225" y1="218.5" x2="223.4" y2="220.1" stroke="#000" stroke-width="0.13" stroke-linecap="round" stroke-linejoin="round"/>
<line x1="228" y1="218.5" x2="226.4" y2="220.1" stroke="#000" stroke-width="0.13" stroke-linecap="round" stroke-linejoin="round"/>
<line x1="231" y1="218.5" x2="229.4" y2="220.1" stroke="#000" stroke-width="0.13" stroke-linecap="round" stroke-linejoin="round"/>
<line x1="234" y1="218.5" x2="232.4" y2="220.1" stroke="#000" stroke-width="0.13" stroke-linecap="round" stroke-linejoin="round"/>
<line x1="237" y1="218.5" x2="235.4" y2="220.1" stroke="#000" stroke-width="0.13" stroke-linecap="round" stroke-linejoin="round"/>
<line x1="240" y1="218.5" x2="238.4" y2="220.1" stroke="#000" stroke-width="0.13" stroke-linecap="round" stroke-linejoin="round"/>
<line x1="243" y1="218.5" x2="241.4" y2="220.1" stroke="#000" stroke-width="0.13" stroke-linecap="round" stroke-linejoin="round"/>
<line x1="246" y1="218.5" x2="244.4" y2="220.1" stroke="#000" stroke-width="0.13" stroke-linecap="round" stroke-linejoin="round"/>
<line x1="249" y1="218.5" x2="247.4" y2="220.1" stroke="#000" stroke-width="0.13" stroke-linecap="round" stroke-linejoin="round"/>
<line x1="252" y1="218.5" x2="250.4" y2="220.1" stroke="#000" stroke-width="0.13" stroke-linecap="round" stroke-linejoin="round"/>
<line x1="255" y1="218.5" x2="253.4" y2="220.1" stroke="#000" stroke-width="0.13" stroke-linecap="round" stroke-linejoin="round"/>
<line x1="258" y1="218.5" x2="256.4" y2="220.1" stroke="#000" stroke-width="0.13" stroke-linecap="round" stroke-linejoin="round"/>
</g>
<g id="layer-CUA" data-layer="CUA">
<polygon data-id="D1" points="210,218.5 242.4,218.5 242.4,171.3 210,171.3" fill="none" stroke="#000" stroke-width="0.25" stroke-linecap="round" stroke-linejoin="round"/>
<polygon data-id="D1" points="211,217.5 241.4,217.5 241.4,172.3 211,172.3" fill="none" stroke="#000" stroke-width="0.13" stroke-linecap="round" stroke-linejoin="round"/>
<line data-id="D1" x1="226.2" y1="217.5" x2="226.2" y2="172.3" stroke="#000" stroke-width="0.13" stroke-linecap="round" stroke-linejoin="round"/>
<text data-id="D1" x="226.2" y="194.9" font-size="2.2" text-anchor="middle" dominant-baseline="middle">D1</text>
<polygon data-id="S1" points="180,200.5 204.8,200.5 204.8,172.5 180,172.5" fill="none" stroke="#000" stroke-width="0.25" stroke-linecap="round" stroke-linejoin="round"/>
<polygon data-id="S1" points="181,199.5 203.8,199.5 203.8,173.5 181,173.5" fill="none" stroke="#000" stroke-width="0.13" stroke-linecap="round" stroke-linejoin="round"/>
<line data-id="S1" x1="192.4" y1="199.5" x2="192.4" y2="173.5" stroke="#000" stroke-width="0.13" stroke-linecap="round" stroke-linejoin="round"/>
<text data-id="S1" x="192.4" y="186.5" font-size="2.2" text-anchor="middle" dominant-baseline="middle">S1</text>
<polygon data-id="S3" points="194,128.5 226,128.5 226,100.5 194,100.5" fill="none" stroke="#000" stroke-width="0.25" stroke-linecap="round" stroke-linejoin="round"/>
<polygon data-id="S3" points="195,127.5 225,127.5 225,101.5 195,101.5" fill="none" stroke="#000" stroke-width="0.13" stroke-linecap="round" stroke-linejoin="round"/>
<line data-id="S3" x1="210" y1="127.5" x2="210" y2="101.5" stroke="#000" stroke-width="0.13" stroke-linecap="round" stroke-linejoin="round"/>
<text data-id="S3" x="210" y="114.5" font-size="2.2" text-anchor="middle" dominant-baseline="middle">S3</text>
</g>
<g id="layer-DIM" data-layer="DIM">
<line x1="162" y1="218.5" x2="162" y2="78.5" stroke="#000" stroke-width="0.13" stroke-linecap="round" stroke-linejoin="round"/>
<line x1="168.5" y1="218.5" x2="160.8" y2="218.5" stroke="#000" stroke-width="0.13" stroke-linecap="round" stroke-linejoin="round"/>
<line x1="160.9" y1="219.6" x2="163.1" y2="217.4" stroke="#000" stroke-width="0.25" stroke-linecap="round" stroke-linejoin="round"/>
<line x1="168.5" y1="146.5" x2="160.8" y2="146.5" stroke="#000" stroke-width="0.13" stroke-linecap="round" stroke-linejoin="round"/>
<line x1="160.9" y1="147.6" x2="163.1" y2="145.4" stroke="#000" stroke-width="0.25" stroke-linecap="round" stroke-linejoin="round"/>
<line x1="168.5" y1="78.5" x2="160.8" y2="78.5" stroke="#000" stroke-width="0.13" stroke-linecap="round" stroke-linejoin="round"/>
<line x1="160.9" y1="79.6" x2="163.1" y2="77.4" stroke="#000" stroke-width="0.25" stroke-linecap="round" stroke-linejoin="round"/>
<text x="161" y="182.5" font-size="2.5" text-anchor="middle" dominant-baseline="middle" transform="rotate(90 161 182.5)">3600</text>
<text x="161" y="112.5" font-size="2.5" text-anchor="middle" dominant-baseline="middle" transform="rotate(90 161 112.5)">3400</text>
<line x1="156" y1="218.5" x2="156" y2="78.5" stroke="#000" stroke-width="0.13" stroke-linecap="round" stroke-linejoin="round"/>
<line x1="168.5" y1="218.5" x2="154.8" y2="218.5" stroke="#000" stroke-width="0.13" stroke-linecap="round" stroke-linejoin="round"/>
<line x1="154.9" y1="219.6" x2="157.1" y2="217.4" stroke="#000" stroke-width="0.25" stroke-linecap="round" stroke-linejoin="round"/>
<line x1="168.5" y1="78.5" x2="154.8" y2="78.5" stroke="#000" stroke-width="0.13" stroke-linecap="round" stroke-linejoin="round"/>
<line x1="154.9" y1="79.6" x2="157.1" y2="77.4" stroke="#000" stroke-width="0.25" stroke-linecap="round" stroke-linejoin="round"/>
<text x="155" y="148.5" font-size="2.5" text-anchor="middle" dominant-baseline="middle" transform="rotate(90 155 148.5)">7000</text>
</g>
<g id="layer-TEXT" data-layer="TEXT">
<polygon points="252.6,216.9 255.4,216.9 254,218.5" fill="none" stroke="#000" stroke-width="0.18" stroke-linecap="round" stroke-linejoin="round"/>
<text x="255.8" y="215.9" font-size="2.5" text-anchor="start" dominant-baseline="middle">±0.000</text>
<polygon points="252.6,144.9 255.4,144.9 254,146.5" fill="none" stroke="#000" stroke-width="0.18" stroke-linecap="round" stroke-linejoin="round"/>
<text x="255.8" y="143.9" font-size="2.5" text-anchor="start" dominant-baseline="middle">+3.600</text>
<polygon points="252.6,76.9 255.4,76.9 254,78.5" fill="none" stroke="#000" stroke-width="0.18" stroke-linecap="round" stroke-linejoin="round"/>
<text x="255.8" y="75.9" font-size="2.5" text-anchor="start" dominant-baseline="middle">+7.000</text>
</g>
<g id="layer-KHUNG" data-layer="KHUNG">
<polygon points="7,7 413,7 413,290 7,290" fill="none" stroke="#000" stroke-width="0.7" stroke-linecap="round" stroke-linejoin="round"/>
<polygon points="263,248 413,248 413,290 263,290" fill="none" stroke="#000" stroke-width="0.7" stroke-linecap="round" stroke-linejoin="round"/>
<line x1="263" y1="260" x2="413" y2="260" stroke="#000" stroke-width="0.35" stroke-linecap="round" stroke-linejoin="round"/>
<line x1="263" y1="270" x2="413" y2="270" stroke="#000" stroke-width="0.35" stroke-linecap="round" stroke-linejoin="round"/>
<line x1="263" y1="280" x2="413" y2="280" stroke="#000" stroke-width="0.35" stroke-linecap="round" stroke-linejoin="round"/>
<line x1="367" y1="248" x2="367" y2="290" stroke="#000" stroke-width="0.35" stroke-linecap="round" stroke-linejoin="round"/>
<text x="266" y="255.6" font-size="3.4" text-anchor="start" dominant-baseline="middle" class="b">NHÀ ỐNG 4×16M — 2 TẦNG 3PN</text>
<text x="370" y="255.6" font-size="3.4" text-anchor="start" dominant-baseline="middle" class="b">KT-03</text>
<text x="266" y="266.6" font-size="3" text-anchor="start" dominant-baseline="middle" class="b">MẶT ĐỨNG CHÍNH</text>
<text x="370" y="266.6" font-size="2.8" text-anchor="start" dominant-baseline="middle">TỶ LỆ 1:50</text>
<text x="266" y="276.6" font-size="2.4" text-anchor="start" dominant-baseline="middle">Thiết kế: Atelier AI</text>
<text x="370" y="276.6" font-size="2.4" text-anchor="start" dominant-baseline="middle">Ngày: 13/07/2026</text>
<text x="266" y="286.6" font-size="2.4" text-anchor="start" dominant-baseline="middle">Kiểm: ................</text>
<text x="370" y="286.6" font-size="2.4" text-anchor="start" dominant-baseline="middle">atelier/0.1</text>
<text x="10" y="284.6" font-size="2" text-anchor="start" dominant-baseline="middle">Bản vẽ concept — không thay thế hồ sơ thiết kế có chữ ký KTS hành nghề.</text>
</g>
</svg>