<svg xmlns="http://www.w3.org/2000/svg" viewBox="0 0 420 297" width="420mm" height="297mm">
<style>
text{font-family:'Be Vietnam Pro','Segoe UI',Arial,sans-serif;fill:#000;stroke:none}
.b{font-weight:700}
</style>
<rect width="420" height="297" fill="#ffffff"/>
<g id="layer-TRUC" data-layer="TRUC">
<line data-id="1" x1="28" y1="110.7" x2="392" y2="110.7" stroke="#000" stroke-width="0.13" stroke-linecap="round" stroke-linejoin="round" stroke-dasharray="6 1.5 1 1.5"/>
<circle data-id="1" cx="24" cy="110.7" r="4" fill="none" stroke="#000" stroke-width="0.25" stroke-linecap="round" stroke-linejoin="round"/>
<text data-id="1" x="24" y="110.7" font-size="3.2" text-anchor="middle" dominant-baseline="middle">1</text>
<circle data-id="1" cx="396" cy="110.7" r="4" fill="none" stroke="#000" stroke-width="0.25" stroke-linecap="round" stroke-linejoin="round"/>
<text data-id="1" x="396" y="110.7" font-size="3.2" text-anchor="middle" dominant-baseline="middle">1</text>
<line data-id="2" x1="28" y1="186.3" x2="392" y2="186.3" stroke="#000" stroke-width="0.13" stroke-linecap="round" stroke-linejoin="round" stroke-dasharray="6 1.5 1 1.5"/>
<circle data-id="2" cx="24" cy="186.3" r="4" fill="none" stroke="#000" stroke-width="0.25" stroke-linecap="round" stroke-linejoin="round"/>
<text data-id="2" x="24" y="186.3" font-size="3.2" text-anchor="middle" dominant-baseline="middle">2</text>
<circle data-id="2" cx="396" cy="186.3" r="4" fill="none" stroke="#000" stroke-width="0.25" stroke-linecap="round" stroke-linejoin="round"/>
<text data-id="2" x="396" y="186.3" font-size="3.2" text-anchor="middle" dominant-baseline="middle">2</text>
<line data-id="A" x1="52.2" y1="86.5" x2="52.2" y2="210.5" stroke="#000" stroke-width="0.13" stroke-linecap="round" stroke-linejoin="round" stroke-dasharray="6 1.5 1 1.5"/>
<circle data-id="A" cx="52.2" cy="82.5" r="4" fill="none" stroke="#000" stroke-width="0.25" stroke-linecap="round" stroke-linejoin="round"/>
<text data-id="A" x="52.2" y="82.5" font-size="3.2" text-anchor="middle" dominant-baseline="middle">A</text>
<circle data-id="A" cx="52.2" cy="214.5" r="4" fill="none" stroke="#000" stroke-width="0.25" stroke-linecap="round" stroke-linejoin="round"/>
<text data-id="A" x="52.2" y="214.5" font-size="3.2" text-anchor="middle" dominant-baseline="middle">A</text>
<line data-id="B" x1="150" y1="86.5" x2="150" y2="210.5" stroke="#000" stroke-width="0.13" stroke-linecap="round" stroke-linejoin="round" stroke-dasharray="6 1.5 1 1.5"/>
<circle data-id="B" cx="150" cy="82.5" r="4" fill="none" stroke="#000" stroke-width="0.25" stroke-linecap="round" stroke-linejoin="round"/>
<text data-id="B" x="150" y="82.5" font-size="3.2" text-anchor="middle" dominant-baseline="middle">B</text>
<circle data-id="B" cx="150" cy="214.5" r="4" fill="none" stroke="#000" stroke-width="0.25" stroke-linecap="round" stroke-linejoin="round"/>
<text data-id="B" x="150" y="214.5" font-size="3.2" text-anchor="middle" dominant-baseline="middle">B</text>
<line data-id="C" x1="200.4" y1="86.5" x2="200.4" y2="210.5" stroke="#000" stroke-width="0.13" stroke-linecap="round" stroke-linejoin="round" stroke-dasharray="6 1.5 1 1.5"/>
<circle data-id="C" cx="200.4" cy="82.5" r="4" fill="none" stroke="#000" stroke-width="0.25" stroke-linecap="round" stroke-linejoin="round"/>
<text data-id="C" x="200.4" y="82.5" font-size="3.2" text-anchor="middle" dominant-baseline="middle">C</text>
<circle data-id="C" cx="200.4" cy="214.5" r="4" fill="none" stroke="#000" stroke-width="0.25" stroke-linecap="round" stroke-linejoin="round"/>
<text data-id="C" x="200.4" y="214.5" font-size="3.2" text-anchor="middle" dominant-baseline="middle">C</text>
<line data-id="D" x1="269.4" y1="86.5" x2="269.4" y2="210.5" stroke="#000" stroke-width="0.13" stroke-linecap="round" stroke-linejoin="round" stroke-dasharray="6 1.5 1 1.5"/>
<circle data-id="D" cx="269.4" cy="82.5" r="4" fill="none" stroke="#000" stroke-width="0.25" stroke-linecap="round" stroke-linejoin="round"/>
<text data-id="D" x="269.4" y="82.5" font-size="3.2" text-anchor="middle" dominant-baseline="middle">D</text>
<circle data-id="D" cx="269.4" cy="214.5" r="4" fill="none" stroke="#000" stroke-width="0.25" stroke-linecap="round" stroke-linejoin="round"/>
<text data-id="D" x="269.4" y="214.5" font-size="3.2" text-anchor="middle" dominant-baseline="middle">D</text>
<line data-id="E" x1="298.4" y1="86.5" x2="298.4" y2="210.5" stroke="#000" stroke-width="0.13" stroke-linecap="round" stroke-linejoin="round" stroke-dasharray="6 1.5 1 1.5"/>
<circle data-id="E" cx="298.4" cy="82.5" r="4" fill="none" stroke="#000" stroke-width="0.25" stroke-linecap="round" stroke-linejoin="round"/>
<text data-id="E" x="298.4" y="82.5" font-size="3.2" text-anchor="middle" dominant-baseline="middle">E</text>
<circle data-id="E" cx="298.4" cy="214.5" r="4" fill="none" stroke="#000" stroke-width="0.25" stroke-linecap="round" stroke-linejoin="round"/>
<text data-id="E" x="298.4" y="214.5" font-size="3.2" text-anchor="middle" dominant-baseline="middle">E</text>
<line data-id="F" x1="351.2" y1="86.5" x2="351.2" y2="210.5" stroke="#000" stroke-width="0.13" stroke-linecap="round" stroke-linejoin="round" stroke-dasharray="6 1.5 1 1.5"/>
<circle data-id="F" cx="351.2" cy="82.5" r="4" fill="none" stroke="#000" stroke-width="0.25" stroke-linecap="round" stroke-linejoin="round"/>
<text data-id="F" x="351.2" y="82.5" font-size="3.2" text-anchor="middle" dominant-baseline="middle">F</text>
<circle data-id="F" cx="351.2" cy="214.5" r="4" fill="none" stroke="#000" stroke-width="0.25" stroke-linecap="round" stroke-linejoin="round"/>
<text data-id="F" x="351.2" y="214.5" font-size="3.2" text-anchor="middle" dominant-baseline="middle">F</text>
<line data-id="G" x1="367.8" y1="86.5" x2="367.8" y2="210.5" stroke="#000" stroke-width="0.13" stroke-linecap="round" stroke-linejoin="round" stroke-dasharray="6 1.5 1 1.5"/>
<circle data-id="G" cx="367.8" cy="82.5" r="4" fill="none" stroke="#000" stroke-width="0.25" stroke-linecap="round" stroke-linejoin="round"/>
<text data-id="G" x="367.8" y="82.5" font-size="3.2" text-anchor="middle" dominant-baseline="middle">G</text>
<circle data-id="G" cx="367.8" cy="214.5" r="4" fill="none" stroke="#000" stroke-width="0.25" stroke-linecap="round" stroke-linejoin="round"/>
<text data-id="G" x="367.8" y="214.5" font-size="3.2" text-anchor="middle" dominant-baseline="middle">G</text>
</g>
<g id="layer-TUONG-CAT" data-layer="TUONG-CAT">
<polygon data-id="W1" points="54.4,108.5 54.4,118.5 50,118.5 50,108.5" fill="#1f1f1f" stroke="#000" stroke-width="0.5" stroke-linecap="round" stroke-linejoin="round"/>
<polygon data-id="W1" points="54.4,143.3 54.4,148.5 50,148.5 50,143.3" fill="#1f1f1f" stroke="#000" stroke-width="0.5" stroke-linecap="round" stroke-linejoin="round"/>
<polygon data-id="W1" points="54.4,180.9 54.4,188.5 50,188.5 50,180.9" fill="#1f1f1f" stroke="#000" stroke-width="0.5" stroke-linecap="round" stroke-linejoin="round"/>
<polygon data-id="W2" points="50,108.5 370,108.5 370,112.9 50,112.9" fill="#1f1f1f" stroke="#000" stroke-width="0.5" stroke-linecap="round" stroke-linejoin="round"/>
<polygon data-id="W3" points="50,184.1 370,184.1 370,188.5 50,188.5" fill="#1f1f1f" stroke="#000" stroke-width="0.5" stroke-linecap="round" stroke-linejoin="round"/>
<polygon data-id="W4" points="370,108.5 370,188.5 365.6,188.5 365.6,108.5" fill="#1f1f1f" stroke="#000" stroke-width="0.5" stroke-linecap="round" stroke-linejoin="round"/>
<polygon data-id="W5" points="299.5,110.7 299.5,114.7 297.3,114.7 297.3,110.7" fill="#1f1f1f" stroke="#000" stroke-width="0.5" stroke-linecap="round" stroke-linejoin="round"/>
<polygon data-id="W5" points="299.5,130.7 299.5,186.3 297.3,186.3 297.3,130.7" fill="#1f1f1f" stroke="#000" stroke-width="0.5" stroke-linecap="round" stroke-linejoin="round"/>
<polygon data-id="W6" points="298.4,135.1 294.4,135.1 294.4,132.9 298.4,132.9" fill="#1f1f1f" stroke="#000" stroke-width="0.5" stroke-linecap="round" stroke-linejoin="round"/>
<polygon data-id="W6" points="280,135.1 269.4,135.1 269.4,132.9 280,132.9" fill="#1f1f1f" stroke="#000" stroke-width="0.5" stroke-linecap="round" stroke-linejoin="round"/>
<polygon data-id="W7" points="270.5,134 270.5,186.3 268.3,186.3 268.3,134" fill="#1f1f1f" stroke="#000" stroke-width="0.5" stroke-linecap="round" stroke-linejoin="round"/>
<polygon data-id="W8" points="352.3,110.7 352.3,136.1 350.1,136.1 350.1,110.7" fill="#1f1f1f" stroke="#000" stroke-width="0.5" stroke-linecap="round" stroke-linejoin="round"/>
<polygon data-id="W8" points="352.3,160.9 352.3,186.3 350.1,186.3 350.1,160.9" fill="#1f1f1f" stroke="#000" stroke-width="0.5" stroke-linecap="round" stroke-linejoin="round"/>
</g>
<g id="layer-TUONG-THAY" data-layer="TUONG-THAY">
<polygon data-id="site" points="50,108.5 50,188.5 370,188.5 370,108.5" fill="none" stroke="#000" stroke-width="0.13" stroke-linecap="round" stroke-linejoin="round" stroke-dasharray="3 1.2 0.6 1.2"/>
<line data-id="D1" x1="54.4" y1="148.5" x2="50" y2="148.5" stroke="#000" stroke-width="0.25" stroke-linecap="round" stroke-linejoin="round"/>
<line data-id="D1" x1="54.4" y1="180.9" x2="50" y2="180.9" stroke="#000" stroke-width="0.25" stroke-linecap="round" stroke-linejoin="round"/>
<line data-id="S1" x1="54.4" y1="118.5" x2="50" y2="118.5" stroke="#000" stroke-width="0.25" stroke-linecap="round" stroke-linejoin="round"/>
<line data-id="S1" x1="54.4" y1="143.3" x2="50" y2="143.3" stroke="#000" stroke-width="0.25" stroke-linecap="round" stroke-linejoin="round"/>
<line data-id="D2" x1="294.4" y1="135.1" x2="294.4" y2="132.9" stroke="#000" stroke-width="0.25" stroke-linecap="round" stroke-linejoin="round"/>
<line data-id="D2" x1="280" y1="135.1" x2="280" y2="132.9" stroke="#000" stroke-width="0.25" stroke-linecap="round" stroke-linejoin="round"/>
<line data-id="D3" x1="299.5" y1="114.7" x2="297.3" y2="114.7" stroke="#000" stroke-width="0.25" stroke-linecap="round" stroke-linejoin="round"/>
<line data-id="D3" x1="299.5" y1="130.7" x2="297.3" y2="130.7" stroke="#000" stroke-width="0.25" stroke-linecap="round" stroke-linejoin="round"/>
<line data-id="S2" x1="352.3" y1="136.1" x2="350.1" y2="136.1" stroke="#000" stroke-width="0.25" stroke-linecap="round" stroke-linejoin="round"/>
<line data-id="S2" x1="352.3" y1="160.9" x2="350.1" y2="160.9" stroke="#000" stroke-width="0.25" stroke-linecap="round" stroke-linejoin="round"/>
</g>
<g id="layer-CUA" data-layer="CUA">
<line data-id="D1" x1="52.2" y1="148.5" x2="68.4" y2="148.5" stroke="#000" stroke-width="0.35" stroke-linecap="round" stroke-linejoin="round"/>
<path data-id="D1" d="M 52.2 164.7 A 16.2 16.2 0 0 0 68.4 148.5" fill="none" stroke="#000" stroke-width="0.18" stroke-linecap="round" stroke-linejoin="round"/>
<line data-id="D1" x1="52.2" y1="180.9" x2="68.4" y2="180.9" stroke="#000" stroke-width="0.35" stroke-linecap="round" stroke-linejoin="round"/>
<path data-id="D1" d="M 52.2 164.7 A 16.2 16.2 0 0 1 68.4 180.9" fill="none" stroke="#000" stroke-width="0.18" stroke-linecap="round" stroke-linejoin="round"/>
<text data-id="D1" x="56.6" y="164.7" font-size="2.2" text-anchor="middle" dominant-baseline="middle">D1</text>
<line data-id="S1" x1="50" y1="118.5" x2="50" y2="143.3" stroke="#000" stroke-width="0.25" stroke-linecap="round" stroke-linejoin="round"/>
<line data-id="S1" x1="52.2" y1="118.5" x2="52.2" y2="143.3" stroke="#000" stroke-width="0.25" stroke-linecap="round" stroke-linejoin="round"/>
<line data-id="S1" x1="54.4" y1="118.5" x2="54.4" y2="143.3" stroke="#000" stroke-width="0.25" stroke-linecap="round" stroke-linejoin="round"/>
<text data-id="S1" x="56.6" y="130.9" font-size="2.2" text-anchor="middle" dominant-baseline="middle">S1</text>
<line data-id="D2" x1="280" y1="134" x2="280" y2="148.4" stroke="#000" stroke-width="0.35" stroke-linecap="round" stroke-linejoin="round"/>
<path data-id="D2" d="M 294.4 134 A 14.4 14.4 0 0 1 280 148.4" fill="none" stroke="#000" stroke-width="0.18" stroke-linecap="round" stroke-linejoin="round"/>
<text data-id="D2" x="287.2" y="137.3" font-size="2.2" text-anchor="middle" dominant-baseline="middle">D2</text>
<line data-id="D3" x1="298.4" y1="130.7" x2="314.4" y2="130.7" stroke="#000" stroke-width="0.35" stroke-linecap="round" stroke-linejoin="round"/>
<path data-id="D3" d="M 298.4 114.7 A 16 16 0 0 1 314.4 130.7" fill="none" stroke="#000" stroke-width="0.18" stroke-linecap="round" stroke-linejoin="round"/>
<text data-id="D3" x="301.7" y="122.7" font-size="2.2" text-anchor="middle" dominant-baseline="middle">D3</text>
<line data-id="S2" x1="350.1" y1="136.1" x2="350.1" y2="160.9" stroke="#000" stroke-width="0.25" stroke-linecap="round" stroke-linejoin="round"/>
<line data-id="S2" x1="351.2" y1="136.1" x2="351.2" y2="160.9" stroke="#000" stroke-width="0.25" stroke-linecap="round" stroke-linejoin="round"/>
<line data-id="S2" x1="352.3" y1="136.1" x2="352.3" y2="160.9" stroke="#000" stroke-width="0.25" stroke-linecap="round" stroke-linejoin="round"/>
<text data-id="S2" x="354.5" y="148.5" font-size="2.2" text-anchor="middle" dominant-baseline="middle">S2</text>
</g>
<g id="layer-THANG" data-layer="THANG">
<polygon data-id="ST1" points="200.4,165.1 200.4,184.1 250.4,184.1 250.4,165.1" fill="none" stroke="#000" stroke-width="0.25" stroke-linecap="round" stroke-linejoin="round"/>
<line data-id="ST1" x1="205.4" y1="165.1" x2="205.4" y2="184.1" stroke="#000" stroke-width="0.25" stroke-linecap="round" stroke-linejoin="round"/>
<line data-id="ST1" x1="210.4" y1="165.1" x2="210.4" y2="184.1" stroke="#000" stroke-width="0.25" stroke-linecap="round" stroke-linejoin="round"/>
<line data-id="ST1" x1="215.4" y1="165.1" x2="215.4" y2="184.1" stroke="#000" stroke-width="0.25" stroke-linecap="round" stroke-linejoin="round"/>
<line data-id="ST1" x1="220.4" y1="165.1" x2="220.4" y2="184.1" stroke="#000" stroke-width="0.25" stroke-linecap="round" stroke-linejoin="round"/>
<line data-id="ST1" x1="225.4" y1="165.1" x2="225.4" y2="184.1" stroke="#000" stroke-width="0.25" stroke-linecap="round" stroke-linejoin="round"/>
<line data-id="ST1" x1="230.4" y1="165.1" x2="230.4" y2="184.1" stroke="#000" stroke-width="0.25" stroke-linecap="round" stroke-linejoin="round"/>
<line data-id="ST1" x1="235.4" y1="165.1" x2="235.4" y2="184.1" stroke="#000" stroke-width="0.25" stroke-linecap="round" stroke-linejoin="round"/>
<line data-id="ST1" x1="240.4" y1="165.1" x2="240.4" y2="184.1" stroke="#000" stroke-width="0.25" stroke-linecap="round" stroke-linejoin="round"/>
<line data-id="ST1" x1="245.4" y1="165.1" x2="245.4" y2="184.1" stroke="#000" stroke-width="0.25" stroke-linecap="round" stroke-linejoin="round"/>
<line data-id="ST1" x1="250.4" y1="165.1" x2="250.4" y2="184.1" stroke="#000" stroke-width="0.25" stroke-linecap="round" stroke-linejoin="round"/>
<polygon data-id="ST1" points="200.4,146.1 200.4,165.1 250.4,165.1 250.4,146.1" fill="none" stroke="#000" stroke-width="0.25" stroke-linecap="round" stroke-linejoin="round"/>
<line data-id="ST1" x1="245.4" y1="165.1" x2="245.4" y2="146.1" stroke="#000" stroke-width="0.25" stroke-linecap="round" stroke-linejoin="round"/>
<line data-id="ST1" x1="240.4" y1="165.1" x2="240.4" y2="146.1" stroke="#000" stroke-width="0.25" stroke-linecap="round" stroke-linejoin="round"/>
<line data-id="ST1" x1="235.4" y1="165.1" x2="235.4" y2="146.1" stroke="#000" stroke-width="0.25" stroke-linecap="round" stroke-linejoin="round"/>
<line data-id="ST1" x1="230.4" y1="165.1" x2="230.4" y2="146.1" stroke="#000" stroke-width="0.25" stroke-linecap="round" stroke-linejoin="round"/>
<line data-id="ST1" x1="225.4" y1="165.1" x2="225.4" y2="146.1" stroke="#000" stroke-width="0.25" stroke-linecap="round" stroke-linejoin="round"/>
<line data-id="ST1" x1="220.4" y1="165.1" x2="220.4" y2="146.1" stroke="#000" stroke-width="0.25" stroke-linecap="round" stroke-linejoin="round"/>
<line data-id="ST1" x1="215.4" y1="165.1" x2="215.4" y2="146.1" stroke="#000" stroke-width="0.25" stroke-linecap="round" stroke-linejoin="round"/>
<line data-id="ST1" x1="210.4" y1="165.1" x2="210.4" y2="146.1" stroke="#000" stroke-width="0.25" stroke-linecap="round" stroke-linejoin="round"/>
<line data-id="ST1" x1="205.4" y1="165.1" x2="205.4" y2="146.1" stroke="#000" stroke-width="0.25" stroke-linecap="round" stroke-linejoin="round"/>
<line data-id="ST1" x1="200.4" y1="165.1" x2="200.4" y2="146.1" stroke="#000" stroke-width="0.25" stroke-linecap="round" stroke-linejoin="round"/>
<polygon data-id="ST1" points="250.4,146.1 250.4,184.1 269.4,184.1 269.4,146.1" fill="none" stroke="#000" stroke-width="0.25" stroke-linecap="round" stroke-linejoin="round"/>
<polyline data-id="ST1" points="200.4,174.6 259.9,174.6 259.9,165.1 200.4,155.6" fill="none" stroke="#000" stroke-width="0.18" stroke-linecap="round" stroke-linejoin="round"/>
<polygon data-id="ST1" points="200.4,155.6 202.6,156.4 202.6,154.8" fill="#000"/>
<text data-id="ST1" x="222.9" y="170.04" font-size="2.2" text-anchor="middle" dominant-baseline="middle">LÊN 21 BẬC</text>
<polyline data-id="ST1" points="227.9,160.35 227.9,170.325 229.1,173.175 226.7,176.025 227.9,178.875 227.9,188.85" fill="none" stroke="#000" stroke-width="0.25" stroke-linecap="round" stroke-linejoin="round"/>
</g>
<g id="layer-NOI-THAT" data-layer="NOI-THAT">
<polygon data-id="F1" points="93,129.9 129,129.9 129,112.9 93,112.9" fill="none" stroke="#000" stroke-width="0.18" stroke-linecap="round" stroke-linejoin="round"/>
<line data-id="F1" x1="93" y1="127.1" x2="129" y2="127.1" stroke="#000" stroke-width="0.13" stroke-linecap="round" stroke-linejoin="round"/>
<line data-id="F1" x1="95.8" y1="127.1" x2="95.8" y2="112.9" stroke="#000" stroke-width="0.13" stroke-linecap="round" stroke-linejoin="round"/>
<line data-id="F1" x1="126.2" y1="127.1" x2="126.2" y2="112.9" stroke="#000" stroke-width="0.13" stroke-linecap="round" stroke-linejoin="round"/>
<polygon data-id="F2" points="95,184.1 127,184.1 127,175.1 95,175.1" fill="none" stroke="#000" stroke-width="0.18" stroke-linecap="round" stroke-linejoin="round"/>
<polygon data-id="F2" points="101.4,180.5 120.6,180.5 120.6,178.7 101.4,178.7" fill="none" stroke="#000" stroke-width="0.13" stroke-linecap="round" stroke-linejoin="round"/>
<polygon data-id="F3" points="54.4,115.5 54.4,129.5 92.4,129.5 92.4,115.5" fill="none" stroke="#000" stroke-width="0.18" stroke-linecap="round" stroke-linejoin="round"/>
<circle data-id="F3" cx="59.2" cy="122.5" r="1.9" fill="none" stroke="#000" stroke-width="0.13" stroke-linecap="round" stroke-linejoin="round"/>
<circle data-id="F3" cx="87.6" cy="122.5" r="1.9" fill="none" stroke="#000" stroke-width="0.13" stroke-linecap="round" stroke-linejoin="round"/>
<line data-id="F3" x1="59.2" y1="122.5" x2="87.6" y2="122.5" stroke="#000" stroke-width="0.13" stroke-linecap="round" stroke-linejoin="round"/>
<line data-id="F3" x1="63" y1="116.7" x2="63" y2="128.3" stroke="#000" stroke-width="0.18" stroke-linecap="round" stroke-linejoin="round"/>
<polygon data-id="F4" points="54.4,131.5 54.4,145.5 92.4,145.5 92.4,131.5" fill="none" stroke="#000" stroke-width="0.18" stroke-linecap="round" stroke-linejoin="round"/>
<circle data-id="F4" cx="59.2" cy="138.5" r="1.9" fill="none" stroke="#000" stroke-width="0.13" stroke-linecap="round" stroke-linejoin="round"/>
<circle data-id="F4" cx="87.6" cy="138.5" r="1.9" fill="none" stroke="#000" stroke-width="0.13" stroke-linecap="round" stroke-linejoin="round"/>
<line data-id="F4" x1="59.2" y1="138.5" x2="87.6" y2="138.5" stroke="#000" stroke-width="0.13" stroke-linecap="round" stroke-linejoin="round"/>
<line data-id="F4" x1="63" y1="132.7" x2="63" y2="144.3" stroke="#000" stroke-width="0.18" stroke-linecap="round" stroke-linejoin="round"/>
<polygon data-id="F5" points="148,146.5 176,146.5 176,130.5 148,130.5" fill="none" stroke="#000" stroke-width="0.18" stroke-linecap="round" stroke-linejoin="round"/>
<polygon data-id="F5" points="149.2,145.3 174.8,145.3 174.8,131.7 149.2,131.7" fill="none" stroke="#000" stroke-width="0.13" stroke-linecap="round" stroke-linejoin="round"/>
<polygon data-id="F6" points="130.1,184.1 178.1,184.1 178.1,172.1 130.1,172.1" fill="none" stroke="#000" stroke-width="0.18" stroke-linecap="round" stroke-linejoin="round"/>
<polygon data-id="F6" points="135.86,181.5 145.06,181.5 145.06,174.7 135.86,174.7" fill="none" stroke="#000" stroke-width="0.13" stroke-linecap="round" stroke-linejoin="round"/>
<circle data-id="F6" cx="140.46" cy="178.1" r="1.1" fill="none" stroke="#000" stroke-width="0.13" stroke-linecap="round" stroke-linejoin="round"/>
<circle data-id="F6" cx="163.7" cy="180.2" r="2.1" fill="none" stroke="#000" stroke-width="0.13" stroke-linecap="round" stroke-linejoin="round"/>
<circle data-id="F6" cx="163.7" cy="175.8" r="2.1" fill="none" stroke="#000" stroke-width="0.13" stroke-linecap="round" stroke-linejoin="round"/>
<polygon data-id="F7" points="185.4,170.1 185.4,184.1 199.4,184.1 199.4,170.1" fill="none" stroke="#000" stroke-width="0.18" stroke-linecap="round" stroke-linejoin="round"/>
<line data-id="F7" x1="190.02" y1="170.1" x2="190.02" y2="184.1" stroke="#000" stroke-width="0.13" stroke-linecap="round" stroke-linejoin="round"/>
<polygon data-id="F8" points="326.1,184.1 350.1,184.1 350.1,144.1 326.1,144.1" fill="none" stroke="#000" stroke-width="0.18" stroke-linecap="round" stroke-linejoin="round"/>
<polygon data-id="F8" points="327.5,182.7 348.7,182.7 348.7,176.1 327.5,176.1" fill="none" stroke="#000" stroke-width="0.13" stroke-linecap="round" stroke-linejoin="round"/>
<line data-id="F8" x1="326.1" y1="171.3" x2="350.1" y2="171.3" stroke="#000" stroke-width="0.13" stroke-linecap="round" stroke-linejoin="round"/>
<polygon data-id="F9" points="348,112.9 328,112.9 328,123.9 348,123.9" fill="none" stroke="#000" stroke-width="0.18" stroke-linecap="round" stroke-linejoin="round"/>
<line data-id="F9" x1="338" y1="112.9" x2="338" y2="123.9" stroke="#000" stroke-width="0.13" stroke-linecap="round" stroke-linejoin="round"/>
<line data-id="F9" x1="348" y1="112.9" x2="338" y2="123.9" stroke="#000" stroke-width="0.13" stroke-linecap="round" stroke-linejoin="round"/>
<polygon data-id="F10" points="279.9,184.1 287.9,184.1 287.9,170.1 279.9,170.1" fill="none" stroke="#000" stroke-width="0.18" stroke-linecap="round" stroke-linejoin="round"/>
<polygon data-id="F10" points="279.9,184.1 287.9,184.1 287.9,180.7 279.9,180.7" fill="none" stroke="#000" stroke-width="0.13" stroke-linecap="round" stroke-linejoin="round"/>
<ellipse data-id="F10" cx="283.9" cy="175.42" rx="3.36" ry="4.2" fill="none" transform="rotate(0 283.9 175.42)" stroke="#000" stroke-width="0.13" stroke-linecap="round" stroke-linejoin="round"/>
<polygon data-id="F11" points="270.5,152 270.5,163 278.9,163 278.9,152" fill="none" stroke="#000" stroke-width="0.18" stroke-linecap="round" stroke-linejoin="round"/>
<ellipse data-id="F11" cx="275.1" cy="157.5" rx="4.3" ry="2.8" fill="none" transform="rotate(90 275.1 157.5)" stroke="#000" stroke-width="0.13" stroke-linecap="round" stroke-linejoin="round"/>
<circle data-id="F11" cx="271.7" cy="157.5" r="0.52" fill="none" stroke="#000" stroke-width="0.13" stroke-linecap="round" stroke-linejoin="round"/>
<polygon data-id="F12" points="352.6,171.5 352.6,183.5 364.6,183.5 364.6,171.5" fill="none" stroke="#000" stroke-width="0.18" stroke-linecap="round" stroke-linejoin="round"/>
<circle data-id="F12" cx="358.6" cy="177.5" r="3.72" fill="none" stroke="#000" stroke-width="0.13" stroke-linecap="round" stroke-linejoin="round"/>
</g>
<g id="layer-DIM" data-layer="DIM">
<line x1="48.5" y1="108.5" x2="28.8" y2="108.5" stroke="#000" stroke-width="0.13" stroke-linecap="round" stroke-linejoin="round"/>
<line x1="48.5" y1="112.9" x2="40.8" y2="112.9" stroke="#000" stroke-width="0.13" stroke-linecap="round" stroke-linejoin="round"/>
<line x1="48.5" y1="118.5" x2="40.8" y2="118.5" stroke="#000" stroke-width="0.13" stroke-linecap="round" stroke-linejoin="round"/>
<line x1="48.5" y1="143.3" x2="40.8" y2="143.3" stroke="#000" stroke-width="0.13" stroke-linecap="round" stroke-linejoin="round"/>
<line x1="48.5" y1="148.5" x2="40.8" y2="148.5" stroke="#000" stroke-width="0.13" stroke-linecap="round" stroke-linejoin="round"/>
<line x1="48.5" y1="180.9" x2="40.8" y2="180.9" stroke="#000" stroke-width="0.13" stroke-linecap="round" stroke-linejoin="round"/>
<line x1="48.5" y1="184.1" x2="40.8" y2="184.1" stroke="#000" stroke-width="0.13" stroke-linecap="round" stroke-linejoin="round"/>
<line x1="48.5" y1="188.5" x2="28.8" y2="188.5" stroke="#000" stroke-width="0.13" stroke-linecap="round" stroke-linejoin="round"/>
<line x1="48.5" y1="110.7" x2="34.8" y2="110.7" stroke="#000" stroke-width="0.13" stroke-linecap="round" stroke-linejoin="round"/>
<line x1="48.5" y1="186.3" x2="34.8" y2="186.3" stroke="#000" stroke-width="0.13" stroke-linecap="round" stroke-linejoin="round"/>
<line x1="42" y1="108.5" x2="42" y2="188.5" stroke="#000" stroke-width="0.13" stroke-linecap="round" stroke-linejoin="round"/>
<line x1="40.9" y1="107.4" x2="43.1" y2="109.6" stroke="#000" stroke-width="0.25" stroke-linecap="round" stroke-linejoin="round"/>
<line x1="40.9" y1="111.8" x2="43.1" y2="114" stroke="#000" stroke-width="0.25" stroke-linecap="round" stroke-linejoin="round"/>
<line x1="40.9" y1="117.4" x2="43.1" y2="119.6" stroke="#000" stroke-width="0.25" stroke-linecap="round" stroke-linejoin="round"/>
<line x1="40.9" y1="142.2" x2="43.1" y2="144.4" stroke="#000" stroke-width="0.25" stroke-linecap="round" stroke-linejoin="round"/>
<line x1="40.9" y1="147.4" x2="43.1" y2="149.6" stroke="#000" stroke-width="0.25" stroke-linecap="round" stroke-linejoin="round"/>
<line x1="40.9" y1="179.8" x2="43.1" y2="182" stroke="#000" stroke-width="0.25" stroke-linecap="round" stroke-linejoin="round"/>
<line x1="40.9" y1="183" x2="43.1" y2="185.2" stroke="#000" stroke-width="0.25" stroke-linecap="round" stroke-linejoin="round"/>
<line x1="40.9" y1="187.4" x2="43.1" y2="189.6" stroke="#000" stroke-width="0.25" stroke-linecap="round" stroke-linejoin="round"/>
<text x="39.9" y="110.7" font-size="2.5" text-anchor="middle" dominant-baseline="middle" transform="rotate(90 39.9 110.7)">220</text>
<text x="37.7" y="115.7" font-size="2.5" text-anchor="middle" dominant-baseline="middle" transform="rotate(90 37.7 115.7)">280</text>
<text x="43" y="130.9" font-size="2.5" text-anchor="middle" dominant-baseline="middle" transform="rotate(90 43 130.9)">1240</text>
<text x="39.9" y="145.9" font-size="2.5" text-anchor="middle" dominant-baseline="middle" transform="rotate(90 39.9 145.9)">260</text>
<text x="43" y="164.7" font-size="2.5" text-anchor="middle" dominant-baseline="middle" transform="rotate(90 43 164.7)">1620</text>
<text x="37.7" y="182.5" font-size="2.5" text-anchor="middle" dominant-baseline="middle" transform="rotate(90 37.7 182.5)">160</text>
<text x="39.9" y="186.3" font-size="2.5" text-anchor="middle" dominant-baseline="middle" transform="rotate(90 39.9 186.3)">220</text>
<line x1="36" y1="110.7" x2="36" y2="186.3" stroke="#000" stroke-width="0.13" stroke-linecap="round" stroke-linejoin="round"/>
<line x1="34.9" y1="109.6" x2="37.1" y2="111.8" stroke="#000" stroke-width="0.25" stroke-linecap="round" stroke-linejoin="round"/>
<line x1="34.9" y1="185.2" x2="37.1" y2="187.4" stroke="#000" stroke-width="0.25" stroke-linecap="round" stroke-linejoin="round"/>
<text x="37" y="148.5" font-size="2.5" text-anchor="middle" dominant-baseline="middle" transform="rotate(90 37 148.5)">3780</text>
<line x1="30" y1="108.5" x2="30" y2="188.5" stroke="#000" stroke-width="0.13" stroke-linecap="round" stroke-linejoin="round"/>
<line x1="28.9" y1="107.4" x2="31.1" y2="109.6" stroke="#000" stroke-width="0.25" stroke-linecap="round" stroke-linejoin="round"/>
<line x1="28.9" y1="187.4" x2="31.1" y2="189.6" stroke="#000" stroke-width="0.25" stroke-linecap="round" stroke-linejoin="round"/>
<text x="31" y="148.5" font-size="2.5" text-anchor="middle" dominant-baseline="middle" transform="rotate(90 31 148.5)">4000</text>
<line x1="371.5" y1="108.5" x2="391.2" y2="108.5" stroke="#000" stroke-width="0.13" stroke-linecap="round" stroke-linejoin="round"/>
<line x1="371.5" y1="112.9" x2="379.2" y2="112.9" stroke="#000" stroke-width="0.13" stroke-linecap="round" stroke-linejoin="round"/>
<line x1="371.5" y1="184.1" x2="379.2" y2="184.1" stroke="#000" stroke-width="0.13" stroke-linecap="round" stroke-linejoin="round"/>
<line x1="371.5" y1="188.5" x2="391.2" y2="188.5" stroke="#000" stroke-width="0.13" stroke-linecap="round" stroke-linejoin="round"/>
<line x1="371.5" y1="110.7" x2="385.2" y2="110.7" stroke="#000" stroke-width="0.13" stroke-linecap="round" stroke-linejoin="round"/>
<line x1="371.5" y1="186.3" x2="385.2" y2="186.3" stroke="#000" stroke-width="0.13" stroke-linecap="round" stroke-linejoin="round"/>
<line x1="378" y1="108.5" x2="378" y2="188.5" stroke="#000" stroke-width="0.13" stroke-linecap="round" stroke-linejoin="round"/>
<line x1="376.9" y1="107.4" x2="379.1" y2="109.6" stroke="#000" stroke-width="0.25" stroke-linecap="round" stroke-linejoin="round"/>
<line x1="376.9" y1="111.8" x2="379.1" y2="114" stroke="#000" stroke-width="0.25" stroke-linecap="round" stroke-linejoin="round"/>
<line x1="376.9" y1="183" x2="379.1" y2="185.2" stroke="#000" stroke-width="0.25" stroke-linecap="round" stroke-linejoin="round"/>
<line x1="376.9" y1="187.4" x2="379.1" y2="189.6" stroke="#000" stroke-width="0.25" stroke-linecap="round" stroke-linejoin="round"/>
<text x="380.1" y="110.7" font-size="2.5" text-anchor="middle" dominant-baseline="middle" transform="rotate(90 380.1 110.7)">220</text>
<text x="377" y="148.5" font-size="2.5" text-anchor="middle" dominant-baseline="middle" transform="rotate(90 377 148.5)">3560</text>
<text x="382.3" y="186.3" font-size="2.5" text-anchor="middle" dominant-baseline="middle" transform="rotate(90 382.3 186.3)">220</text>
<line x1="384" y1="110.7" x2="384" y2="186.3" stroke="#000" stroke-width="0.13" stroke-linecap="round" stroke-linejoin="round"/>
<line x1="382.9" y1="109.6" x2="385.1" y2="111.8" stroke="#000" stroke-width="0.25" stroke-linecap="round" stroke-linejoin="round"/>
<line x1="382.9" y1="185.2" x2="385.1" y2="187.4" stroke="#000" stroke-width="0.25" stroke-linecap="round" stroke-linejoin="round"/>
<text x="383" y="148.5" font-size="2.5" text-anchor="middle" dominant-baseline="middle" transform="rotate(90 383 148.5)">3780</text>
<line x1="390" y1="108.5" x2="390" y2="188.5" stroke="#000" stroke-width="0.13" stroke-linecap="round" stroke-linejoin="round"/>
<line x1="388.9" y1="107.4" x2="391.1" y2="109.6" stroke="#000" stroke-width="0.25" stroke-linecap="round" stroke-linejoin="round"/>
<line x1="388.9" y1="187.4" x2="391.1" y2="189.6" stroke="#000" stroke-width="0.25" stroke-linecap="round" stroke-linejoin="round"/>
<text x="389" y="148.5" font-size="2.5" text-anchor="middle" dominant-baseline="middle" transform="rotate(90 389 148.5)">4000</text>
<line x1="50" y1="107" x2="50" y2="87.3" stroke="#000" stroke-width="0.13" stroke-linecap="round" stroke-linejoin="round"/>
<line x1="54.4" y1="107" x2="54.4" y2="99.3" stroke="#000" stroke-width="0.13" stroke-linecap="round" stroke-linejoin="round"/>
<line x1="365.6" y1="107" x2="365.6" y2="99.3" stroke="#000" stroke-width="0.13" stroke-linecap="round" stroke-linejoin="round"/>
<line x1="370" y1="107" x2="370" y2="87.3" stroke="#000" stroke-width="0.13" stroke-linecap="round" stroke-linejoin="round"/>
<line x1="52.2" y1="107" x2="52.2" y2="93.3" stroke="#000" stroke-width="0.13" stroke-linecap="round" stroke-linejoin="round"/>
<line x1="150" y1="107" x2="150" y2="93.3" stroke="#000" stroke-width="0.13" stroke-linecap="round" stroke-linejoin="round"/>
<line x1="200.4" y1="107" x2="200.4" y2="93.3" stroke="#000" stroke-width="0.13" stroke-linecap="round" stroke-linejoin="round"/>
<line x1="269.4" y1="107" x2="269.4" y2="93.3" stroke="#000" stroke-width="0.13" stroke-linecap="round" stroke-linejoin="round"/>
<line x1="298.4" y1="107" x2="298.4" y2="93.3" stroke="#000" stroke-width="0.13" stroke-linecap="round" stroke-linejoin="round"/>
<line x1="351.2" y1="107" x2="351.2" y2="93.3" stroke="#000" stroke-width="0.13" stroke-linecap="round" stroke-linejoin="round"/>
<line x1="367.8" y1="107" x2="367.8" y2="93.3" stroke="#000" stroke-width="0.13" stroke-linecap="round" stroke-linejoin="round"/>
<line x1="50" y1="100.5" x2="370" y2="100.5" stroke="#000" stroke-width="0.13" stroke-linecap="round" stroke-linejoin="round"/>
<line x1="48.9" y1="99.4" x2="51.1" y2="101.6" stroke="#000" stroke-width="0.25" stroke-linecap="round" stroke-linejoin="round"/>
<line x1="53.3" y1="99.4" x2="55.5" y2="101.6" stroke="#000" stroke-width="0.25" stroke-linecap="round" stroke-linejoin="round"/>
<line x1="364.5" y1="99.4" x2="366.7" y2="101.6" stroke="#000" stroke-width="0.25" stroke-linecap="round" stroke-linejoin="round"/>
<line x1="368.9" y1="99.4" x2="371.1" y2="101.6" stroke="#000" stroke-width="0.25" stroke-linecap="round" stroke-linejoin="round"/>
<text x="52.2" y="98.4" font-size="2.5" text-anchor="middle" dominant-baseline="middle">220</text>
<text x="210" y="101.5" font-size="2.5" text-anchor="middle" dominant-baseline="middle">15560</text>
<text x="367.8" y="96.2" font-size="2.5" text-anchor="middle" dominant-baseline="middle">220</text>
<line x1="52.2" y1="94.5" x2="367.8" y2="94.5" stroke="#000" stroke-width="0.13" stroke-linecap="round" stroke-linejoin="round"/>
<line x1="51.1" y1="93.4" x2="53.3" y2="95.6" stroke="#000" stroke-width="0.25" stroke-linecap="round" stroke-linejoin="round"/>
<line x1="148.9" y1="93.4" x2="151.1" y2="95.6" stroke="#000" stroke-width="0.25" stroke-linecap="round" stroke-linejoin="round"/>
<line x1="199.3" y1="93.4" x2="201.5" y2="95.6" stroke="#000" stroke-width="0.25" stroke-linecap="round" stroke-linejoin="round"/>
<line x1="268.3" y1="93.4" x2="270.5" y2="95.6" stroke="#000" stroke-width="0.25" stroke-linecap="round" stroke-linejoin="round"/>
<line x1="297.3" y1="93.4" x2="299.5" y2="95.6" stroke="#000" stroke-width="0.25" stroke-linecap="round" stroke-linejoin="round"/>
<line x1="350.1" y1="93.4" x2="352.3" y2="95.6" stroke="#000" stroke-width="0.25" stroke-linecap="round" stroke-linejoin="round"/>
<line x1="366.7" y1="93.4" x2="368.9" y2="95.6" stroke="#000" stroke-width="0.25" stroke-linecap="round" stroke-linejoin="round"/>
<text x="101.1" y="95.5" font-size="2.5" text-anchor="middle" dominant-baseline="middle">4890</text>
<text x="175.2" y="95.5" font-size="2.5" text-anchor="middle" dominant-baseline="middle">2520</text>
<text x="234.9" y="95.5" font-size="2.5" text-anchor="middle" dominant-baseline="middle">3450</text>
<text x="283.9" y="95.5" font-size="2.5" text-anchor="middle" dominant-baseline="middle">1450</text>
<text x="324.8" y="95.5" font-size="2.5" text-anchor="middle" dominant-baseline="middle">2640</text>
<text x="359.5" y="95.5" font-size="2.5" text-anchor="middle" dominant-baseline="middle">830</text>
<line x1="50" y1="88.5" x2="370" y2="88.5" stroke="#000" stroke-width="0.13" stroke-linecap="round" stroke-linejoin="round"/>
<line x1="48.9" y1="87.4" x2="51.1" y2="89.6" stroke="#000" stroke-width="0.25" stroke-linecap="round" stroke-linejoin="round"/>
<line x1="368.9" y1="87.4" x2="371.1" y2="89.6" stroke="#000" stroke-width="0.25" stroke-linecap="round" stroke-linejoin="round"/>
<text x="210" y="89.5" font-size="2.5" text-anchor="middle" dominant-baseline="middle">16000</text>
<line x1="50" y1="190" x2="50" y2="209.7" stroke="#000" stroke-width="0.13" stroke-linecap="round" stroke-linejoin="round"/>
<line x1="54.4" y1="190" x2="54.4" y2="197.7" stroke="#000" stroke-width="0.13" stroke-linecap="round" stroke-linejoin="round"/>
<line x1="365.6" y1="190" x2="365.6" y2="197.7" stroke="#000" stroke-width="0.13" stroke-linecap="round" stroke-linejoin="round"/>
<line x1="370" y1="190" x2="370" y2="209.7" stroke="#000" stroke-width="0.13" stroke-linecap="round" stroke-linejoin="round"/>
<line x1="52.2" y1="190" x2="52.2" y2="203.7" stroke="#000" stroke-width="0.13" stroke-linecap="round" stroke-linejoin="round"/>
<line x1="150" y1="190" x2="150" y2="203.7" stroke="#000" stroke-width="0.13" stroke-linecap="round" stroke-linejoin="round"/>
<line x1="200.4" y1="190" x2="200.4" y2="203.7" stroke="#000" stroke-width="0.13" stroke-linecap="round" stroke-linejoin="round"/>
<line x1="269.4" y1="190" x2="269.4" y2="203.7" stroke="#000" stroke-width="0.13" stroke-linecap="round" stroke-linejoin="round"/>
<line x1="298.4" y1="190" x2="298.4" y2="203.7" stroke="#000" stroke-width="0.13" stroke-linecap="round" stroke-linejoin="round"/>
<line x1="351.2" y1="190" x2="351.2" y2="203.7" stroke="#000" stroke-width="0.13" stroke-linecap="round" stroke-linejoin="round"/>
<line x1="367.8" y1="190" x2="367.8" y2="203.7" stroke="#000" stroke-width="0.13" stroke-linecap="round" stroke-linejoin="round"/>
<line x1="50" y1="196.5" x2="370" y2="196.5" stroke="#000" stroke-width="0.13" stroke-linecap="round" stroke-linejoin="round"/>
<line x1="48.9" y1="195.4" x2="51.1" y2="197.6" stroke="#000" stroke-width="0.25" stroke-linecap="round" stroke-linejoin="round"/>
<line x1="53.3" y1="195.4" x2="55.5" y2="197.6" stroke="#000" stroke-width="0.25" stroke-linecap="round" stroke-linejoin="round"/>
<line x1="364.5" y1="195.4" x2="366.7" y2="197.6" stroke="#000" stroke-width="0.25" stroke-linecap="round" stroke-linejoin="round"/>
<line x1="368.9" y1="195.4" x2="371.1" y2="197.6" stroke="#000" stroke-width="0.25" stroke-linecap="round" stroke-linejoin="round"/>
<text x="52.2" y="198.6" font-size="2.5" text-anchor="middle" dominant-baseline="middle">220</text>
<text x="210" y="195.5" font-size="2.5" text-anchor="middle" dominant-baseline="middle">15560</text>
<text x="367.8" y="200.8" font-size="2.5" text-anchor="middle" dominant-baseline="middle">220</text>
<line x1="52.2" y1="202.5" x2="367.8" y2="202.5" stroke="#000" stroke-width="0.13" stroke-linecap="round" stroke-linejoin="round"/>
<line x1="51.1" y1="201.4" x2="53.3" y2="203.6" stroke="#000" stroke-width="0.25" stroke-linecap="round" stroke-linejoin="round"/>
<line x1="148.9" y1="201.4" x2="151.1" y2="203.6" stroke="#000" stroke-width="0.25" stroke-linecap="round" stroke-linejoin="round"/>
<line x1="199.3" y1="201.4" x2="201.5" y2="203.6" stroke="#000" stroke-width="0.25" stroke-linecap="round" stroke-linejoin="round"/>
<line x1="268.3" y1="201.4" x2="270.5" y2="203.6" stroke="#000" stroke-width="0.25" stroke-linecap="round" stroke-linejoin="round"/>
<line x1="297.3" y1="201.4" x2="299.5" y2="203.6" stroke="#000" stroke-width="0.25" stroke-linecap="round" stroke-linejoin="round"/>
<line x1="350.1" y1="201.4" x2="352.3" y2="203.6" stroke="#000" stroke-width="0.25" stroke-linecap="round" stroke-linejoin="round"/>
<line x1="366.7" y1="201.4" x2="368.9" y2="203.6" stroke="#000" stroke-width="0.25" stroke-linecap="round" stroke-linejoin="round"/>
<text x="101.1" y="201.5" font-size="2.5" text-anchor="middle" dominant-baseline="middle">4890</text>
<text x="175.2" y="201.5" font-size="2.5" text-anchor="middle" dominant-baseline="middle">2520</text>
<text x="234.9" y="201.5" font-size="2.5" text-anchor="middle" dominant-baseline="middle">3450</text>
<text x="283.9" y="201.5" font-size="2.5" text-anchor="middle" dominant-baseline="middle">1450</text>
<text x="324.8" y="201.5" font-size="2.5" text-anchor="middle" dominant-baseline="middle">2640</text>
<text x="359.5" y="201.5" font-size="2.5" text-anchor="middle" dominant-baseline="middle">830</text>
<line x1="50" y1="208.5" x2="370" y2="208.5" stroke="#000" stroke-width="0.13" stroke-linecap="round" stroke-linejoin="round"/>
<line x1="48.9" y1="207.4" x2="51.1" y2="209.6" stroke="#000" stroke-width="0.25" stroke-linecap="round" stroke-linejoin="round"/>
<line x1="368.9" y1="207.4" x2="371.1" y2="209.6" stroke="#000" stroke-width="0.25" stroke-linecap="round" stroke-linejoin="round"/>
<text x="210" y="207.5" font-size="2.5" text-anchor="middle" dominant-baseline="middle">16000</text>
</g>
<g id="layer-TEXT" data-layer="TEXT">
<text data-id="R1" x="91.7" y="148.5" font-size="3.5" text-anchor="middle" dominant-baseline="middle">PHÒNG KHÁCH</text>
<text data-id="R1" x="91.7" y="153.1" font-size="2.5" text-anchor="middle" dominant-baseline="middle">13.3m²</text>
<text data-id="R2" x="164.7" y="148.5" font-size="3.5" text-anchor="middle" dominant-baseline="middle">BẾP + ĂN</text>
<text data-id="R2" x="164.7" y="153.1" font-size="2.5" text-anchor="middle" dominant-baseline="middle">12.7m²</text>
<text data-id="R3" x="248.85" y="122.9" font-size="3.5" text-anchor="middle" dominant-baseline="middle">HÀNH LANG</text>
<text data-id="R3" x="248.85" y="127.5" font-size="2.5" text-anchor="middle" dominant-baseline="middle">4.8m²</text>
<text data-id="R4" x="283.9" y="159.6" font-size="2.4" text-anchor="middle" dominant-baseline="middle">WC 1</text>
<text data-id="R4" x="283.9" y="163" font-size="2" text-anchor="middle" dominant-baseline="middle">3.3m²</text>
<text data-id="R5" x="324.8" y="148.5" font-size="3.5" text-anchor="middle" dominant-baseline="middle">PHÒNG BÀ</text>
<text data-id="R5" x="324.8" y="153.1" font-size="2.5" text-anchor="middle" dominant-baseline="middle">9.0m²</text>
<text data-id="R7" x="358.95" y="148.5" font-size="2.4" text-anchor="middle" dominant-baseline="middle" transform="rotate(90 358.95 148.5)">GIẾNG TRỜI SAU</text>
<text data-id="R7" x="362.35" y="148.5" font-size="2" text-anchor="middle" dominant-baseline="middle" transform="rotate(90 362.35 148.5)">2.4m²</text>
<polygon points="90.3,158 93.1,158 91.7,159.6" fill="none" stroke="#000" stroke-width="0.18" stroke-linecap="round" stroke-linejoin="round"/>
<text x="91.7" y="156.8" font-size="2.5" text-anchor="middle" dominant-baseline="middle">±0.000</text>
</g>
<g id="layer-KHUNG" data-layer="KHUNG">
<polygon points="7,7 413,7 413,290 7,290" fill="none" stroke="#000" stroke-width="0.7" stroke-linecap="round" stroke-linejoin="round"/>
<polygon points="263,248 413,248 413,290 263,290" fill="none" stroke="#000" stroke-width="0.7" stroke-linecap="round" stroke-linejoin="round"/>
<line x1="263" y1="260" x2="413" y2="260" stroke="#000" stroke-width="0.35" stroke-linecap="round" stroke-linejoin="round"/>
<line x1="263" y1="270" x2="413" y2="270" stroke="#000" stroke-width="0.35" stroke-linecap="round" stroke-linejoin="round"/>
<line x1="263" y1="280" x2="413" y2="280" stroke="#000" stroke-width="0.35" stroke-linecap="round" stroke-linejoin="round"/>
<line x1="367" y1="248" x2="367" y2="290" stroke="#000" stroke-width="0.35" stroke-linecap="round" stroke-linejoin="round"/>
<text x="266" y="255.6" font-size="3.4" text-anchor="start" dominant-baseline="middle" class="b">NHÀ ỐNG 4×16M — 2 TẦNG 3PN</text>
<text x="370" y="255.6" font-size="3.4" text-anchor="start" dominant-baseline="middle" class="b">KT-01</text>
<text x="266" y="266.6" font-size="3" text-anchor="start" dominant-baseline="middle" class="b">MẶT BẰNG TẦNG 1</text>
<text x="370" y="266.6" font-size="2.8" text-anchor="start" dominant-baseline="middle">TỶ LỆ 1:50</text>
<text x="266" y="276.6" font-size="2.4" text-anchor="start" dominant-baseline="middle">Thiết kế: Atelier AI + anh Ba</text>
<text x="370" y="276.6" font-size="2.4" text-anchor="start" dominant-baseline="middle">Ngày: 13/07/2026</text>
<text x="266" y="286.6" font-size="2.4" text-anchor="start" dominant-baseline="middle">Kiểm: ................</text>
<text x="370" y="286.6" font-size="2.4" text-anchor="start" dominant-baseline="middle">atelier/0.1</text>
<text x="10" y="284.6" font-size="2" text-anchor="start" dominant-baseline="middle">Bản vẽ concept — không thay thế hồ sơ thiết kế có chữ ký KTS hành nghề.</text>
<circle cx="401" cy="19" r="6.5" fill="none" stroke="#000" stroke-width="0.25" stroke-linecap="round" stroke-linejoin="round"/>
<line x1="404.677" y1="22.677" x2="397.323" y2="15.323" stroke="#000" stroke-width="0.35" stroke-linecap="round" stroke-linejoin="round"/>
<polygon points="397.323,15.323 400.859,16.596 398.596,18.859" fill="#000"/>
<text x="394.919" y="12.919" font-size="3" text-anchor="middle" dominant-baseline="middle" class="b">B</text>
</g>
</svg>